<?xml version="1.0" encoding="UTF-8"?>
<svg id="Layer_1" xmlns="http://www.w3.org/2000/svg" viewBox="0 0 141.85 100">
  <defs>
    <style>
      .cls-1 {
        fill: #503472;
      }

      .cls-2 {
        opacity: .59;
      }

      .cls-3 {
        fill: #3c5191;
      }
    </style>
  </defs>
  <g>
    <path d="M4.86,63.46l4.31,11.07,4.51-11.88,4.31,11.88,4.58-11.07h2.71l-7.4,17.62-4.26-11.74-4.44,11.75-7.04-17.63h2.71Z"/>
    <path d="M27.18,65.23c0-.42.15-.79.46-1.09s.68-.46,1.11-.46.81.15,1.12.46c.31.3.46.67.46,1.1s-.15.81-.46,1.12c-.3.31-.67.46-1.11.46s-.81-.15-1.12-.46-.46-.68-.46-1.13ZM29.96,69.58v10.45h-2.42v-10.45h2.42Z"/>
    <path d="M41.17,61.91h2.42v18.13h-2.42v-1.09c-.95.93-2.03,1.4-3.23,1.4-1.43,0-2.62-.52-3.56-1.57-.94-1.07-1.41-2.4-1.41-3.99s.47-2.86,1.41-3.91c.93-1.05,2.1-1.58,3.51-1.58,1.22,0,2.32.5,3.28,1.5v-8.89ZM35.43,74.77c0,1,.27,1.82.81,2.45.55.64,1.24.96,2.08.96.89,0,1.62-.31,2.17-.92.55-.64.83-1.45.83-2.43s-.28-1.79-.83-2.43c-.55-.62-1.27-.93-2.15-.93-.83,0-1.52.31-2.08.94-.55.64-.83,1.42-.83,2.36Z"/>
    <path d="M57.19,79.79c0,.49-.02.93-.05,1.3s-.08.71-.13.99c-.17.79-.51,1.46-1.01,2.03-.94,1.09-2.24,1.63-3.9,1.63-1.39,0-2.54-.38-3.44-1.13-.93-.77-1.47-1.84-1.61-3.21h2.43c.09.52.25.91.46,1.19.5.65,1.23.98,2.19.98,1.77,0,2.65-1.08,2.65-3.25v-1.46c-.96.98-2.06,1.47-3.32,1.47-1.42,0-2.59-.52-3.5-1.54-.92-1.04-1.37-2.35-1.37-3.92s.43-2.82,1.28-3.88c.92-1.13,2.12-1.7,3.63-1.7,1.32,0,2.41.49,3.28,1.47v-1.18h2.41v10.21ZM54.87,74.83c0-1.02-.27-1.83-.82-2.44-.55-.62-1.25-.93-2.11-.93-.92,0-1.64.34-2.17,1.02-.48.61-.72,1.4-.72,2.36s.24,1.73.72,2.34c.52.67,1.24,1,2.17,1s1.65-.34,2.19-1.01c.49-.61.74-1.39.74-2.34Z"/>
    <path d="M70.19,75.37h-7.49c.06.86.34,1.54.84,2.05.49.5,1.13.75,1.9.75.6,0,1.1-.14,1.49-.43.39-.29.83-.82,1.32-1.59l2.04,1.14c-.32.54-.65,1-1,1.38-.35.38-.73.7-1.13.94-.4.25-.83.43-1.3.54-.46.11-.97.17-1.51.17-1.56,0-2.81-.5-3.76-1.5-.94-1.01-1.42-2.35-1.42-4.01s.46-2.99,1.37-4.01c.92-1.01,2.15-1.51,3.67-1.51s2.75.49,3.65,1.47c.89.97,1.33,2.32,1.33,4.05v.57ZM67.71,73.4c-.34-1.29-1.15-1.93-2.44-1.93-.29,0-.57.04-.83.13-.26.09-.49.22-.7.39-.21.17-.39.37-.54.61-.15.24-.26.5-.34.81h4.85Z"/>
    <path d="M75.96,71.83v8.2h-2.42v-8.2h-1.03v-2.25h1.03v-3.83h2.42v3.83h1.88v2.25h-1.88Z"/>
    <path d="M79.55,80.03v-16.57h4.27l2.24,5.82c.12.34.26.74.41,1.18.15.44.32.96.51,1.53l.46,1.46c-.17-1.44-.29-2.67-.38-3.69-.09-1.02-.13-1.88-.13-2.58v-3.72h4.27v16.57h-4.27l-2.25-6.1c-.24-.65-.45-1.26-.64-1.83-.19-.57-.36-1.11-.5-1.63.09,1.17.16,2.18.2,3.05.04.87.06,1.62.06,2.28v4.23h-4.27Z"/>
    <path d="M99.92,76.1l4.21.09c-.3,1.35-.89,2.37-1.75,3.05s-2,1.02-3.41,1.02c-1.66,0-2.96-.52-3.91-1.55-.94-1.04-1.41-2.47-1.41-4.28s.5-3.34,1.51-4.5c1.01-1.17,2.31-1.75,3.91-1.75s2.85.56,3.8,1.69c.94,1.13,1.42,2.63,1.42,4.5l-.02.76h-6.31c.05,1.19.39,1.78,1.01,1.78.49,0,.8-.27.96-.82ZM100.02,72.82c0-.21-.03-.41-.08-.59s-.12-.33-.21-.46c-.09-.13-.2-.23-.32-.31-.12-.08-.25-.11-.4-.11-.3,0-.54.14-.73.41-.19.28-.28.63-.28,1.06h2.01Z"/>
    <path d="M117.05,80.03h-5l-.41-1.07c-.04-.12-.09-.24-.13-.36s-.09-.24-.14-.37c-.05-.13-.1-.27-.15-.42-.05-.15-.1-.33-.16-.52-.1.29-.21.57-.32.85-.11.28-.23.55-.35.83l-.5,1.07h-4.83l3.53-5.97-3.34-5.63h4.92l.45,1.31c.05.13.11.32.19.58l.18.61c.11-.31.18-.52.23-.64l.24-.6.48-1.26h4.78l-3.43,5.54,3.77,6.06Z"/>
    <path d="M118.48,68.43h4.3v6.54c0,.62.06,1.08.18,1.36.13.24.37.35.73.35s.59-.12.71-.35c.13-.24.19-.69.19-1.36v-6.54h4.3v7.11c0,.47-.04.9-.11,1.28s-.19.73-.35,1.04c-.16.31-.37.6-.62.85-.25.26-.56.49-.91.71-.94.56-2.01.84-3.21.84s-2.28-.28-3.21-.84c-.36-.21-.66-.45-.92-.7s-.46-.54-.62-.85c-.16-.31-.28-.66-.35-1.05s-.11-.81-.11-1.28v-7.11Z"/>
    <path d="M130.92,79.08l1.57-3.22c.77.81,1.49,1.21,2.16,1.21.56,0,.84-.2.84-.6,0-.34-.38-.65-1.13-.92-2.02-.72-3.04-1.85-3.04-3.4,0-1.14.45-2.08,1.35-2.83.91-.75,2.04-1.13,3.4-1.13,1.12,0,2.27.31,3.46.94l-1.47,3.14c-.72-.68-1.31-1.02-1.77-1.02s-.68.18-.68.55c0,.39.43.76,1.29,1.11,1.07.42,1.8.87,2.19,1.34.41.47.61,1.12.61,1.95,0,1.19-.43,2.17-1.3,2.93-.87.76-1.98,1.14-3.34,1.14-.65,0-1.3-.08-1.94-.25-.3-.08-.63-.2-.99-.36-.36-.16-.76-.36-1.21-.58Z"/>
  </g>
  <g>
    <path d="M46.12,20.34c1.24-.35,2.45-.12,3.65.27,2.68.89,4.34,2.88,5.73,5.2,1.69,2.83,2.7,6.01,4.59,8.72,1.07,1.53,1.86,1.53,3,.07,1.61-2.06,2.65-4.44,3.82-6.74,1.15-2.26,2.23-4.55,3.47-6.77.85-1.53,1.9-1.81,3.22-1.17.86.42,1.44,1.09,1.92,1.91,1.44,2.47,2.88,4.94,4.38,7.37.86,1.39,1.74,1.44,2.84.26.33-.35.58-.77.85-1.18,2.8-4.29,5.4-8.72,8.77-12.6,1-1.15.99-1.93.12-3.04-1.47-1.88-3.07-3.52-4.79-4.91-3.53-2.77-7.75-4.69-12.36-5.46-1.15-.18-2.33-.31-3.55-.36-.17,0-.34-.01-.52-.02-.17,0-.34,0-.5,0-9.35,0-17.6,4.67-22.56,11.81-1.15,1.71-2.14,3.59-2.96,5.63-.4,1-.2,1.31.87,1.01Z"/>
    <path class="cls-3" d="M46.12,20.34c1.24-.35,2.45-.12,3.65.27,2.68.89,4.34,2.88,5.73,5.2,1.69,2.83,2.7,6.01,4.59,8.72,1.07,1.53,1.86,1.53,3,.07,1.61-2.06,2.65-4.44,3.82-6.74,1.15-2.26,2.23-4.55,3.47-6.77.85-1.53,1.9-1.81,3.22-1.17.86.42,1.44,1.09,1.92,1.91,1.44,2.47,2.88,4.94,4.38,7.37.86,1.39,1.74,1.44,2.84.26.33-.35.58-.77.85-1.18,2.8-4.29,5.4-8.72,8.77-12.6,1-1.15.99-1.93.12-3.04-1.47-1.88-3.07-3.52-4.79-4.91-3.53-2.77-7.75-4.69-12.36-5.46-1.15-.18-2.33-.31-3.55-.36-.17,0-.34-.01-.52-.02-.17,0-.34,0-.5,0-9.35,0-17.6,4.67-22.56,11.81-1.15,1.71-2.14,3.59-2.96,5.63-.4,1-.2,1.31.87,1.01Z"/>
    <path d="M71.27,1.9c.17,0,.35.01.52.02-.17,0-.34-.01-.52-.02Z"/>
    <path class="cls-2" d="M71.27,1.9c.17,0,.35.01.52.02-.17,0-.34-.01-.52-.02Z"/>
    <path d="M96.85,21.33c-.1-.35-.07-.82-.49-.96-.53-.17-.75.33-1,.64-.53.68-1.05,1.37-1.5,2.1-2.47,4.05-4.89,8.13-7.38,12.17-1.21,1.97-2.36,4.02-4.09,5.59-1.66,1.5-2.98,1.19-3.99-.82-.92-1.83-1.77-3.7-2.64-5.55-.45-.97-1.03-1.88-2.21-1.86-1.09.01-1.66.92-2.14,1.77-.8,1.41-1.5,2.87-2.31,4.26-1.54,2.65-2.9,5.44-5.03,7.7-1.63,1.73-3.66,1.55-5.13-.32-1.05-1.33-1.68-2.88-2.35-4.41-2.14-4.83-4.4-9.61-7.26-14.07-.66-1.02-1.43-1.9-2.55-2.4-2.09-.93-3.19-.25-3.25,1.98-.02.65,0,1.29,0,1.94,0,15.55,12.64,27.89,28.15,27.25,9.54-.39,17.06-4.72,22.19-12.8,4.37-6.88,5.24-14.37,2.99-22.21Z"/>
    <path class="cls-1" d="M96.85,21.33c-.1-.35-.07-.82-.49-.96-.53-.17-.75.33-1,.64-.53.68-1.05,1.37-1.5,2.1-2.47,4.05-4.89,8.13-7.38,12.17-1.21,1.97-2.36,4.02-4.09,5.59-1.66,1.5-2.98,1.19-3.99-.82-.92-1.83-1.77-3.7-2.64-5.55-.45-.97-1.03-1.88-2.21-1.86-1.09.01-1.66.92-2.14,1.77-.8,1.41-1.5,2.87-2.31,4.26-1.54,2.65-2.9,5.44-5.03,7.7-1.63,1.73-3.66,1.55-5.13-.32-1.05-1.33-1.68-2.88-2.35-4.41-2.14-4.83-4.4-9.61-7.26-14.07-.66-1.02-1.43-1.9-2.55-2.4-2.09-.93-3.19-.25-3.25,1.98-.02.65,0,1.29,0,1.94,0,15.55,12.64,27.89,28.15,27.25,9.54-.39,17.06-4.72,22.19-12.8,4.37-6.88,5.24-14.37,2.99-22.21Z"/>
  </g>
  <g>
    <rect class="cls-3" x="114.59" y="94.11" width="18.43" height="1.1"/>
    <rect class="cls-3" x="8.83" y="94.11" width="18.43" height="1.1"/>
  </g>
  <g>
    <path class="cls-3" d="M34.79,90.48v.87c-.25-.12-.45-.18-.62-.18-.23,0-.42.06-.59.17-.16.11-.3.29-.41.52-.11.23-.18.53-.24.89-.05.36-.08.78-.08,1.28,0,1.77.45,2.65,1.36,2.65.16,0,.35-.05.57-.15v.88c-.23.13-.49.19-.78.19-1.45,0-2.17-1.18-2.17-3.55,0-1.28.18-2.23.53-2.85.35-.62.89-.94,1.62-.94.27,0,.53.07.8.21Z"/>
    <path class="cls-3" d="M36.74,90.36h2.56v.81h-1.6v2.26h1.42v.81h-1.42v2.44h1.6v.81h-2.56v-7.15Z"/>
    <path class="cls-3" d="M41.32,90.36h.9l.96,2.85c.28.81.52,1.67.74,2.58-.08-.55-.13-1.05-.17-1.5s-.06-.87-.06-1.26v-2.67h.97v7.15h-.9l-1.08-3.22c-.1-.3-.19-.61-.28-.92s-.17-.65-.24-.99c0-.04-.02-.1-.03-.16-.01-.06-.03-.13-.05-.21,0,.08.02.15.02.21,0,.06.01.11.01.15l.05.73.05.88s0,.11,0,.18c0,.07,0,.15,0,.24l.05,3.12h-.95v-7.15Z"/>
    <path class="cls-3" d="M46.33,90.36h3.14v.84h-1.08v6.31h-.95v-6.31h-1.11v-.84Z"/>
    <path class="cls-3" d="M51.13,90.36h2.56v.81h-1.6v2.26h1.42v.81h-1.42v2.44h1.6v.81h-2.56v-7.15Z"/>
    <path class="cls-3" d="M55.72,90.36h1.27c.52,0,.92.12,1.17.38.32.32.49.82.49,1.49,0,.51-.08.92-.26,1.23-.17.31-.42.5-.73.58l1.31,3.48h-.98l-1.31-3.5v3.5h-.96v-7.15ZM56.68,93.53c.37,0,.64-.09.79-.26s.23-.46.23-.88c0-.22-.02-.41-.05-.57-.03-.16-.08-.29-.15-.38-.07-.1-.16-.17-.27-.22-.11-.05-.24-.07-.39-.07h-.16v2.38Z"/>
    <path class="cls-3" d="M67.53,94.11c0,1.26-.14,2.16-.42,2.69-.28.53-.75.8-1.41.8-.69,0-1.18-.29-1.47-.86-.28-.56-.42-1.55-.42-2.98,0-1.27.14-2.17.42-2.7.28-.53.76-.8,1.43-.8.6,0,1.04.21,1.33.62.19.27.33.67.42,1.17.09.47.13,1.15.13,2.06ZM66.52,94.22c0-1.24-.06-2.06-.17-2.46-.11-.41-.34-.61-.68-.61s-.57.19-.68.56c-.11.38-.17,1.13-.17,2.27,0,1.05.06,1.77.18,2.18.12.38.35.57.68.57s.55-.18.67-.54c.12-.35.18-1.01.18-1.97Z"/>
    <path class="cls-3" d="M69.63,90.36h2.58v.81h-1.61v2.26h1.45v.82h-1.45v3.26h-.96v-7.15Z"/>
    <path class="cls-3" d="M76.64,90.36h.93l.49,3.32.08.49c.04.27.06.51.08.73l.05.61s0,.04,0,.08,0,.09.01.15l.02-.23c.04-.4.08-.78.12-1.12.04-.34.09-.65.14-.94l.51-3.09h.74l.48,3.01c.07.44.13.86.18,1.24.05.38.09.74.12,1.09.03-.36.07-.72.1-1.06.04-.34.08-.67.12-1l.07-.48.41-2.8h.92l-1.26,7.15h-.75l-.5-3.09s-.01-.06-.02-.15c-.01-.09-.03-.22-.05-.38l-.1-.71c0-.06-.02-.14-.03-.25-.01-.11-.03-.25-.04-.42l-.02-.3c0,.07-.01.13-.02.19,0,.05-.01.1-.01.13-.02.2-.03.36-.04.47s-.02.18-.02.21l-.1.69c-.02.16-.04.28-.05.37-.01.09-.02.15-.03.17l-.52,3.09h-.77l-1.24-7.15Z"/>
    <path class="cls-3" d="M83.94,90.36h.96v7.15h-.96v-7.15Z"/>
    <path class="cls-3" d="M87.15,90.36h1.19c.36,0,.67.04.91.12.23.08.43.21.61.41.27.3.46.68.57,1.16.11.46.17,1.12.17,1.98,0,.79-.06,1.43-.19,1.93-.12.48-.33.84-.61,1.09-.35.31-.97.47-1.88.47h-.78v-7.15ZM88.11,96.67c.59,0,.98-.18,1.18-.53.2-.35.31-1.04.31-2.07,0-1.1-.1-1.86-.29-2.27-.2-.41-.55-.62-1.07-.62h-.12v5.5Z"/>
    <path class="cls-3" d="M94.41,93.75h1.75v.28c0,1.39-.12,2.33-.37,2.82-.24.5-.69.75-1.35.75s-1.17-.28-1.46-.83c-.29-.56-.43-1.49-.43-2.8,0-1.5.16-2.5.47-3,.3-.47.75-.7,1.37-.7.47,0,.83.11,1.1.34.27.23.47.6.62,1.13l-.9.38c-.04-.19-.08-.35-.13-.47-.05-.13-.1-.23-.16-.3-.12-.15-.29-.22-.53-.22-.32,0-.54.2-.66.59-.12.41-.18,1.16-.18,2.23s.06,1.82.18,2.2c.12.38.35.57.68.57.31,0,.52-.14.64-.41.13-.29.19-.76.19-1.4v-.34h-.84v-.82Z"/>
    <path class="cls-3" d="M98.26,90.36h2.56v.81h-1.6v2.26h1.42v.81h-1.42v2.44h1.6v.81h-2.56v-7.15Z"/>
    <path class="cls-3" d="M102.27,90.36h3.14v.84h-1.08v6.31h-.95v-6.31h-1.11v-.84Z"/>
    <path class="cls-3" d="M109.66,90.51v.94c-.29-.21-.56-.31-.79-.31-.25,0-.46.09-.62.27-.16.17-.24.4-.24.68,0,.25.06.46.17.64.06.1.16.22.29.37.13.15.31.33.52.55.39.4.66.74.8,1.03.14.28.21.63.21,1.03,0,.55-.16,1.01-.47,1.37-.31.35-.71.52-1.2.52-.41,0-.76-.11-1.05-.34v-.95c.34.25.65.38.94.38.26,0,.47-.09.62-.26.15-.17.22-.41.22-.71,0-.26-.06-.49-.17-.7-.06-.1-.14-.21-.25-.34-.1-.13-.24-.27-.39-.43-.24-.24-.45-.45-.61-.64s-.28-.35-.36-.49c-.15-.27-.22-.61-.22-1.03,0-.56.15-1,.44-1.33.29-.33.69-.5,1.18-.5.34,0,.67.08.98.25Z"/>
  </g>
</svg>