<?xml version="1.0" encoding="UTF-8"?>
<svg id="Layer_1" xmlns="http://www.w3.org/2000/svg" viewBox="0 0 458.96 342.72">
  <defs>
    <style>
      .cls-1, .cls-2 {
        fill: none;
      }

      .cls-3 {
        letter-spacing: .03em;
      }

      .cls-3, .cls-4, .cls-5, .cls-6 {
        font-family: Futura-Medium, Futura;
        font-weight: 500;
      }

      .cls-4 {
        letter-spacing: .03em;
      }

      .cls-5, .cls-7 {
        letter-spacing: .02em;
      }

      .cls-6 {
        letter-spacing: .02em;
      }

      .cls-8 {
        font-size: 67.89px;
      }

      .cls-9 {
        fill: #503472;
      }

      .cls-2 {
        stroke: #000;
        stroke-miterlimit: 10;
      }

      .cls-10 {
        opacity: .59;
      }

      .cls-11 {
        fill: #3c5191;
      }

      .cls-7, .cls-12, .cls-13 {
        font-family: Futura-CondensedExtraBold, Futura;
        font-weight: 700;
      }

      .cls-14 {
        fill: #535353;
      }

      .cls-12 {
        letter-spacing: .03em;
      }

      .cls-13 {
        letter-spacing: 0em;
      }
    </style>
  </defs>
  <text class="cls-8" transform="translate(16.19 259.08)"><tspan class="cls-3" x="0" y="0">W</tspan><tspan class="cls-6" x="74.02" y="0">idg</tspan><tspan class="cls-4" x="176.36" y="0">e</tspan><tspan class="cls-5" x="215.87" y="0">t</tspan><tspan class="cls-12" x="235.8" y="0">N</tspan><tspan class="cls-13" x="280.88" y="0">e</tspan><tspan class="cls-7" x="318.18" y="0">xus</tspan></text>
  <g>
    <path d="M153.31,69.32c3.84-1.09,7.57-.38,11.28.85,8.28,2.75,13.42,8.88,17.71,16.06,5.22,8.73,8.35,18.56,14.19,26.94,3.3,4.73,5.74,4.73,9.27.21,4.96-6.37,8.17-13.72,11.8-20.83,3.56-6.97,6.9-14.07,10.71-20.9,2.64-4.73,5.86-5.6,9.96-3.6,2.65,1.29,4.45,3.38,5.92,5.89,4.45,7.62,8.89,15.25,13.52,22.76,2.66,4.31,5.36,4.46,8.78.81,1.01-1.08,1.81-2.38,2.62-3.63,8.64-13.25,16.68-26.95,27.08-38.94,3.09-3.56,3.05-5.96.36-9.4-4.56-5.82-9.49-10.87-14.81-15.15-10.9-8.54-23.93-14.48-38.17-16.87-3.55-.57-7.2-.94-10.96-1.11-.53-.02-1.06-.04-1.6-.05-.52-.01-1.04-.03-1.56-.03-28.87,0-54.36,14.44-69.68,36.48-3.56,5.29-6.61,11.08-9.13,17.4-1.23,3.1-.6,4.04,2.69,3.11Z"/>
    <path class="cls-11" d="M153.31,69.32c3.84-1.09,7.57-.38,11.28.85,8.28,2.75,13.42,8.88,17.71,16.06,5.22,8.73,8.35,18.56,14.19,26.94,3.3,4.73,5.74,4.73,9.27.21,4.96-6.37,8.17-13.72,11.8-20.83,3.56-6.97,6.9-14.07,10.71-20.9,2.64-4.73,5.86-5.6,9.96-3.6,2.65,1.29,4.45,3.38,5.92,5.89,4.45,7.62,8.89,15.25,13.52,22.76,2.66,4.31,5.36,4.46,8.78.81,1.01-1.08,1.81-2.38,2.62-3.63,8.64-13.25,16.68-26.95,27.08-38.94,3.09-3.56,3.05-5.96.36-9.4-4.56-5.82-9.49-10.87-14.81-15.15-10.9-8.54-23.93-14.48-38.17-16.87-3.55-.57-7.2-.94-10.96-1.11-.53-.02-1.06-.04-1.6-.05-.52-.01-1.04-.03-1.56-.03-28.87,0-54.36,14.44-69.68,36.48-3.56,5.29-6.61,11.08-9.13,17.4-1.23,3.1-.6,4.04,2.69,3.11Z"/>
    <path d="M230.98,12.35c.53.02,1.07.03,1.6.05-.53-.02-1.06-.04-1.6-.05Z"/>
    <path class="cls-10" d="M230.98,12.35c.53.02,1.07.03,1.6.05-.53-.02-1.06-.04-1.6-.05Z"/>
    <path d="M310.02,72.39c-.31-1.08-.2-2.54-1.52-2.96-1.64-.52-2.33,1.02-3.09,1.99-1.64,2.09-3.25,4.23-4.64,6.5-7.63,12.51-15.12,25.12-22.81,37.59-3.75,6.08-7.29,12.43-12.64,17.27-5.13,4.64-9.19,3.68-12.32-2.52-2.85-5.65-5.45-11.42-8.15-17.15-1.4-2.98-3.18-5.8-6.83-5.76-3.38.04-5.14,2.83-6.62,5.46-2.47,4.34-4.64,8.86-7.15,13.17-4.77,8.19-8.95,16.82-15.52,23.79-5.03,5.33-11.29,4.78-15.84-.98-3.24-4.1-5.18-8.91-7.27-13.63-6.62-14.93-13.59-29.68-22.43-43.47-2.03-3.16-4.41-5.88-7.88-7.42-6.45-2.88-9.85-.78-10.03,6.12-.05,2,0,4,0,6,0,48.02,39.04,86.15,86.96,84.17,29.46-1.22,52.71-14.59,68.55-39.54,13.5-21.27,16.2-44.4,9.25-68.62Z"/>
    <path class="cls-9" d="M310.02,72.39c-.31-1.08-.2-2.54-1.52-2.96-1.64-.52-2.33,1.02-3.09,1.99-1.64,2.09-3.25,4.23-4.64,6.5-7.63,12.51-15.12,25.12-22.81,37.59-3.75,6.08-7.29,12.43-12.64,17.27-5.13,4.64-9.19,3.68-12.32-2.52-2.85-5.65-5.45-11.42-8.15-17.15-1.4-2.98-3.18-5.8-6.83-5.76-3.38.04-5.14,2.83-6.62,5.46-2.47,4.34-4.64,8.86-7.15,13.17-4.77,8.19-8.95,16.82-15.52,23.79-5.03,5.33-11.29,4.78-15.84-.98-3.24-4.1-5.18-8.91-7.27-13.63-6.62-14.93-13.59-29.68-22.43-43.47-2.03-3.16-4.41-5.88-7.88-7.42-6.45-2.88-9.85-.78-10.03,6.12-.05,2,0,4,0,6,0,48.02,39.04,86.15,86.96,84.17,29.46-1.22,52.71-14.59,68.55-39.54,13.5-21.27,16.2-44.4,9.25-68.62Z"/>
  </g>
  <g>
    <g>
      <path class="cls-1" d="M263.78,299.98h-.4c.08.64.16,1.29.23,1.99.05-.73.11-1.38.16-1.99Z"/>
      <path class="cls-1" d="M140.13,299.98h.24c-.11-.35-.23-.71-.32-1.04.03.37.05.7.08,1.04Z"/>
      <path class="cls-1" d="M292.49,300.14c0-.06,0-.11,0-.16h-2.05v3.7c1.37-.07,2.06-1.25,2.06-3.54Z"/>
      <path class="cls-1" d="M214.62,302.79c.25.66.59.99,1.03.99s.8-.32,1.05-.97c.26-.65.39-1.55.39-2.71,0-.04,0-.08,0-.12h-2.83s0,.02,0,.03c0,1.19.12,2.12.37,2.78Z"/>
      <path class="cls-1" d="M143.39,301.48c-.06-.54-.12-1.03-.16-1.5h-.31c.03.09.05.16.08.26l.39,1.25Z"/>
      <path class="cls-1" d="M260.59,298.77c-.03-.23-.05-.41-.06-.53-.03.25-.08.72-.14,1.4,0,.11-.02.22-.03.33h.39c-.01-.11-.03-.23-.05-.33-.04-.35-.08-.64-.11-.87Z"/>
      <path class="cls-1" d="M215.73,296.25c-.45,0-.81.34-1.08,1.01-.26.62-.39,1.52-.39,2.72h2.83c-.01-2.48-.47-3.73-1.36-3.73Z"/>
      <path class="cls-1" d="M257.55,301.79l.12-1.11c.02-.24.06-.47.08-.7h-.39c.02.18.04.36.06.52l.13,1.29Z"/>
      <path class="cls-1" d="M291.96,297.46c-.35-.66-.82-.99-1.41-.99h-.12v3.51h2.05c-.02-1.05-.19-1.89-.52-2.52Z"/>
      <path class="cls-1" d="M307.57,303.11c.23.56.6.83,1.11.83.2,0,.39-.05.55-.15s.3-.24.42-.41c.11-.18.2-.39.27-.65.06-.25.1-.54.1-.85h-1.41v-1.92h-1.37c0,.15-.01.29-.01.46,0,1.23.12,2.12.35,2.68Z"/>
      <path class="cls-1" d="M186.34,296.12h-.14v3.38h.26c.44,0,.81-.17,1.1-.5.29-.34.44-.76.44-1.28,0-1.06-.55-1.59-1.66-1.59Z"/>
      <path class="cls-14" d="M106.79,300.07c0,2.39.61,4.23,1.82,5.53,1.08,1.16,2.42,1.74,4,1.74.67,0,1.43-.17,2.29-.51l.22-4.09c-.67.61-1.33.92-1.99.92-.39,0-.73-.08-1.03-.25-.3-.17-.55-.4-.76-.72s-.36-.69-.47-1.15-.17-.97-.17-1.54c0-.01,0-.02,0-.03h-3.9s0,.06,0,.1Z"/>
      <path class="cls-14" d="M113.2,295.22c.6,0,1.18.28,1.75.85v-4.05c-.64-.23-1.27-.35-1.89-.35-1.9,0-3.42.67-4.56,2.02-1.12,1.33-1.68,3.09-1.7,5.28h3.9c0-1.17.22-2.09.66-2.75.44-.67,1.05-1,1.83-1Z"/>
      <polygon class="cls-14" points="122.25 307.1 129.36 307.1 129.36 303.7 126.08 303.7 126.08 301.53 129.02 301.53 129.02 299.98 122.25 299.98 122.25 307.1"/>
      <polygon class="cls-14" points="126.08 297.33 126.08 295.27 129.36 295.27 129.36 291.94 122.25 291.94 122.25 298.98 129.02 298.98 129.02 297.33 126.08 297.33"/>
      <path class="cls-14" d="M142.96,291.94v3.18c0,.59.04,1.33.11,2.2.04.49.1,1.05.16,1.65h3.38v-7.04h-3.65Z"/>
      <path class="cls-14" d="M142.56,297.92c-.13-.38-.25-.72-.35-1.01l-1.92-4.97h-3.65v7.04h3.5c-.02-.33-.05-.67-.08-1.04.09.33.2.68.32,1.04h2.53c-.13-.39-.24-.75-.35-1.06Z"/>
      <path class="cls-14" d="M143.39,301.48l-.39-1.25c-.03-.09-.06-.17-.08-.26h-2.53c.04.12.07.23.11.35.16.49.34,1.01.55,1.56l1.93,5.21h3.65v-7.13h-3.38c.05.47.1.97.16,1.5Z"/>
      <path class="cls-14" d="M136.63,307.1h3.65v-3.62c0-.56-.02-1.21-.05-1.95-.02-.47-.06-1-.1-1.57h-3.5v7.13Z"/>
      <polygon class="cls-14" points="161.37 295.33 161.37 291.94 153.24 291.94 153.24 295.33 155.35 295.33 155.35 298.98 159.17 298.98 159.17 295.33 161.37 295.33"/>
      <rect class="cls-14" x="155.35" y="299.98" width="3.83" height="7.13"/>
      <polygon class="cls-14" points="171.82 297.33 171.82 295.27 175.11 295.27 175.11 291.94 167.99 291.94 167.99 298.98 174.77 298.98 174.77 297.33 171.82 297.33"/>
      <polygon class="cls-14" points="167.99 307.1 175.11 307.1 175.11 303.7 171.82 303.7 171.82 301.53 174.77 301.53 174.77 299.98 167.99 299.98 167.99 307.1"/>
      <path class="cls-14" d="M182.38,307.1h3.81v-4.96l-.03-.94c.07.2.12.36.17.5s.08.25.1.34l1.89,5.05h4.14l-2.84-5.89c.67-.3,1.18-.72,1.54-1.24h-8.77v7.13Z"/>
      <path class="cls-14" d="M190.17,292.95c-.86-.68-2.15-1.02-3.87-1.02h-3.92v7.04h8.77c.43-.62.65-1.39.65-2.31,0-1.6-.54-2.84-1.63-3.71ZM187.56,297.99c-.29.34-.66.5-1.1.5h-.26v-3.38h.14c1.11,0,1.66.53,1.66,1.59,0,.52-.15.95-.44,1.28Z"/>
      <path class="cls-14" d="M215.71,291.68c-1.33,0-2.49.49-3.46,1.48-1.31,1.33-1.96,3.25-1.96,5.75,0,.02,0,.04,0,.07h3.96c0-1.19.13-2.1.39-2.72.27-.67.63-1.01,1.08-1.01.89,0,1.34,1.25,1.36,3.73h3.97c-.01-2.21-.49-3.98-1.44-5.3-.97-1.33-2.27-2-3.9-2Z"/>
      <path class="cls-14" d="M217.09,300.09c0,1.16-.13,2.06-.39,2.71-.24.65-.59.97-1.05.97s-.78-.33-1.03-.99c-.25-.66-.37-1.58-.37-2.78,0-.01,0-.02,0-.03h-3.96c.01,2.58.64,4.53,1.88,5.82,1,1.03,2.19,1.55,3.59,1.55,1.57,0,2.85-.67,3.83-2.02.98-1.35,1.48-3.11,1.48-5.27,0-.03,0-.06,0-.09h-3.97s0,.08,0,.12Z"/>
      <polygon class="cls-14" points="228.33 307.1 232.16 307.1 232.16 301.53 234.89 301.53 234.89 299.98 228.33 299.98 228.33 307.1"/>
      <polygon class="cls-14" points="232.16 297.33 232.16 295.27 235.09 295.27 235.09 291.94 228.33 291.94 228.33 298.98 234.89 298.98 234.89 297.33 232.16 297.33"/>
      <path class="cls-14" d="M256.92,295.84l-.62-3.9h-3.78l1.57,7.04h3.27c-.1-.83-.24-1.86-.44-3.14Z"/>
      <path class="cls-14" d="M263.61,301.96c-.07-.7-.15-1.35-.23-1.99h-2.63c.08.63.19,1.34.34,2.16l.88,4.96h3.69l1.44-7.13h-3.33c-.06.61-.11,1.26-.16,1.99Z"/>
      <path class="cls-14" d="M264.8,291.94l-.7,4.4c-.1.61-.19,1.29-.27,2.05-.02.19-.04.4-.06.6h3.33l1.43-7.04h-3.73Z"/>
      <path class="cls-14" d="M262.81,295.34l-.64-3.4h-3.29l-.72,4.05c-.16.95-.3,1.96-.41,2.99h2.61c.01-.11.02-.23.03-.33.06-.69.11-1.15.14-1.4.01.12.03.3.06.53.03.23.07.52.11.87.01.1.03.23.05.33h2.63c-.17-1.34-.36-2.56-.57-3.64Z"/>
      <path class="cls-14" d="M257.67,300.68l-.12,1.11-.13-1.29c-.02-.16-.04-.34-.06-.52h-3.27l1.59,7.13h3.73l.72-5.14c.06-.43.11-.83.16-1.22.03-.27.05-.52.08-.77h-2.61c-.03.24-.06.46-.08.7Z"/>
      <rect class="cls-14" x="275.16" y="299.98" width="3.83" height="7.13"/>
      <rect class="cls-14" x="275.16" y="291.94" width="3.83" height="7.04"/>
      <path class="cls-14" d="M289.91,291.94h-3.3v7.04h3.83v-3.51h.12c.59,0,1.06.33,1.41.99.33.62.5,1.47.52,2.52h3.91c-.01-2.36-.7-4.2-2.07-5.52-1.05-1.02-2.52-1.52-4.41-1.52Z"/>
      <path class="cls-14" d="M292.49,300.14c0,2.29-.69,3.47-2.06,3.54v-3.7h-3.83v7.13h3.58c1.98,0,3.46-.54,4.46-1.63,1.17-1.28,1.75-3.09,1.75-5.44,0-.02,0-.03,0-.05h-3.91c0,.06,0,.11,0,.16Z"/>
      <path class="cls-14" d="M313.93,298.91h-5.34v1.07h5.33c0-.16,0-.31,0-.48v-.59Z"/>
      <path class="cls-14" d="M308.59,301.89h1.41c0,.31-.03.6-.1.85-.06.25-.15.47-.27.65-.11.18-.25.32-.42.41s-.35.15-.55.15c-.51,0-.88-.28-1.11-.83-.23-.56-.35-1.45-.35-2.68,0-.16,0-.3.01-.46h-3.91s0,.07,0,.11c0,2.26.48,4.04,1.45,5.34.97,1.28,2.31,1.93,4.02,1.93s3.05-.65,3.94-1.96c.76-1.13,1.17-2.94,1.21-5.41h-5.33v1.92Z"/>
      <path class="cls-14" d="M308.8,295.09c.3,0,.55.13.75.39.2.26.33.61.38,1.06l3.71-1.36c-1.01-2.34-2.63-3.51-4.87-3.51-1.69,0-3.02.66-3.99,1.98-.96,1.3-1.44,3.07-1.45,5.31h3.91c.06-2.58.57-3.88,1.57-3.88Z"/>
      <polygon class="cls-14" points="321.21 307.1 328.32 307.1 328.32 303.7 325.03 303.7 325.03 301.53 327.98 301.53 327.98 299.98 321.21 299.98 321.21 307.1"/>
      <polygon class="cls-14" points="325.03 297.33 325.03 295.27 328.32 295.27 328.32 291.94 321.21 291.94 321.21 298.98 327.98 298.98 327.98 297.33 325.03 297.33"/>
      <polygon class="cls-14" points="342.73 295.33 342.73 291.94 334.6 291.94 334.6 295.33 336.71 295.33 336.71 298.98 340.53 298.98 340.53 295.33 342.73 295.33"/>
      <rect class="cls-14" x="336.71" y="299.98" width="3.83" height="7.13"/>
      <path class="cls-14" d="M355.94,299.98h-5.75c.11.14.23.29.36.42.29.31.65.62,1.06.93l.62.49c.45.36.68.73.68,1.11,0,.26-.1.48-.31.66s-.48.26-.81.26c-.88,0-1.69-.51-2.44-1.54v4.45c1.03.4,1.99.6,2.89.6,1.3,0,2.38-.45,3.23-1.36s1.28-2.06,1.28-3.45c0-.82-.18-1.54-.53-2.15-.08-.14-.18-.28-.28-.42Z"/>
      <path class="cls-14" d="M354.48,297.61l-.61-.45c-.52-.37-.78-.75-.78-1.13,0-.23.1-.43.29-.6.19-.17.43-.26.72-.26.39,0,.78.14,1.17.42.4.28.75.66,1.06,1.14v-4.33c-.92-.48-1.84-.73-2.75-.73-1.02,0-1.89.31-2.62.92-.26.21-.5.46-.7.74-.2.28-.38.59-.53.92-.31.72-.46,1.41-.46,2.07,0,.39.04.75.13,1.1s.22.69.4,1.01c.1.18.22.36.36.53h5.75c-.35-.47-.83-.92-1.45-1.37Z"/>
    </g>
    <line class="cls-2" x1="370.21" y1="298.5" x2="421.92" y2="298.5"/>
    <line class="cls-2" x1="37.05" y1="299.44" x2="88.75" y2="299.44"/>
  </g>
</svg>